<?xml version="1.0" encoding="iso-8859-1"?>
<!-- Uploaded to: SVG Repo, www.svgrepo.com, Generator: SVG Repo Mixer Tools -->
<!DOCTYPE svg PUBLIC "-//W3C//DTD SVG 1.1//EN" "http://www.w3.org/Graphics/SVG/1.1/DTD/svg11.dtd">
<svg fill="#1a2a36" version="1.1" id="Capa_1" xmlns="http://www.w3.org/2000/svg" xmlns:xlink="http://www.w3.org/1999/xlink" 
	 width="800px" height="800px" viewBox="0 0 980 980" xml:space="preserve">
<g>
	<g>
		<path d="M10,846.644h960c5.523,0,10-4.477,10-10v-26.169c0-5.523-4.477-10-10-10h-27V356.101c0-5.523-4.477-10-10-10H779.992
			c-5.523,0-10-4.477-10-10v-30.539c0-5.522-4.478-10-10-10H649.409c-5.523,0-10,4.478-10,10v40.539v454.373h-25.676V143.356
			c0-5.523-4.478-10-10-10H449.053c-5.522,0-10,4.477-10,10v657.118h-25.676V216.717c0-5.523-4.477-10-10-10h-154.68
			c-5.523,0-10,4.477-10,10v583.758h-27.015V290.077c0-5.523-4.477-10-10-10H47c-5.523,0-10,4.477-10,10v510.397H10
			c-5.523,0-10,4.477-10,10v26.169C0,842.167,4.477,846.644,10,846.644z M841.575,413.899c0-5.522,4.477-10,10-10h29.388
			c5.523,0,10,4.478,10,10v29.389c0,5.522-4.477,10-10,10h-29.388c-5.523,0-10-4.478-10-10V413.899z M841.575,490.797
			c0-5.523,4.477-10,10-10h29.388c5.523,0,10,4.477,10,10v29.388c0,5.523-4.477,10-10,10h-29.388c-5.523,0-10-4.477-10-10V490.797z
			 M841.575,567.696c0-5.522,4.477-10,10-10h29.388c5.523,0,10,4.478,10,10v29.389c0,5.522-4.477,10-10,10h-29.388
			c-5.523,0-10-4.478-10-10V567.696z M841.575,644.594c0-5.523,4.477-10,10-10h29.388c5.523,0,10,4.477,10,10v29.388
			c0,5.523-4.477,10-10,10h-29.388c-5.523,0-10-4.477-10-10V644.594z M766.51,413.899c0-5.522,4.478-10,10-10h29.389
			c5.522,0,10,4.478,10,10v29.389c0,5.522-4.478,10-10,10H776.51c-5.522,0-10-4.478-10-10V413.899z M766.51,490.797
			c0-5.523,4.478-10,10-10h29.389c5.522,0,10,4.477,10,10v29.388c0,5.523-4.478,10-10,10H776.51c-5.522,0-10-4.477-10-10V490.797z
			 M766.51,567.696c0-5.522,4.478-10,10-10h29.389c5.522,0,10,4.478,10,10v29.389c0,5.522-4.478,10-10,10H776.51
			c-5.522,0-10-4.478-10-10V567.696z M766.51,644.594c0-5.523,4.478-10,10-10h29.389c5.522,0,10,4.477,10,10v29.388
			c0,5.523-4.478,10-10,10H776.51c-5.522,0-10-4.477-10-10V644.594z M756.39,745.113c0-5.522,4.478-10,10-10h49.63
			c5.522,0,10,4.478,10,10v55.361h-69.63V745.113z M691.446,413.899c0-5.522,4.477-10,10-10h29.388c5.523,0,10,4.478,10,10v29.389
			c0,5.522-4.477,10-10,10h-29.388c-5.523,0-10-4.478-10-10V413.899z M691.446,490.797c0-5.523,4.477-10,10-10h29.388
			c5.523,0,10,4.477,10,10v29.388c0,5.523-4.477,10-10,10h-29.388c-5.523,0-10-4.477-10-10V490.797z M691.446,567.696
			c0-5.522,4.477-10,10-10h29.388c5.523,0,10,4.478,10,10v29.389c0,5.522-4.477,10-10,10h-29.388c-5.523,0-10-4.478-10-10V567.696z
			 M691.446,644.594c0-5.523,4.477-10,10-10h29.388c5.523,0,10,4.477,10,10v29.388c0,5.523-4.477,10-10,10h-29.388
			c-5.523,0-10-4.477-10-10V644.594z"/>
	</g>
</g>
</svg>