<?xml version="1.0" encoding="utf-8"?>
<!-- Generator: Adobe Illustrator 27.5.0, SVG Export Plug-In . SVG Version: 6.00 Build 0)  -->
<svg version="1.1" xmlns="http://www.w3.org/2000/svg" xmlns:xlink="http://www.w3.org/1999/xlink" x="0px" y="0px"
	 viewBox="0 0 841.89 566.929" style="enable-background:new 0 0 841.89 566.929;" xml:space="preserve">
<g id="BG">
	<rect y="0" style="fill:#323c45;" width="841.89" height="566.929"/>
</g>
<g id="graphics">
	<g>
		<g>
			<path style="fill:#6C6D6D;" d="M442.701,239.375h11.522v18.201c-5.089,5.676-12.134,8.513-21.136,8.513
				c-7.535,0-13.859-2.495-18.971-7.486c-5.113-4.99-7.669-11.289-7.669-18.897c0-7.608,2.605-13.956,7.816-19.045
				c5.21-5.087,11.497-7.633,18.86-7.633c7.364,0,13.761,2.422,19.191,7.266l-5.944,8.587c-2.3-2.006-4.416-3.388-6.348-4.146
				c-1.934-0.758-4.025-1.138-6.275-1.138c-4.355,0-8.023,1.48-11.008,4.44c-2.986,2.961-4.477,6.862-4.477,11.706
				c0,4.844,1.431,8.722,4.293,11.632c2.863,2.912,6.275,4.367,10.238,4.367s7.265-0.758,9.906-2.275V239.375z"/>
			<path style="fill:#6C6D6D;" d="M481.452,235.706c-3.279,0-5.725,1.163-7.34,3.486c-1.614,2.324-2.422,5.394-2.422,9.21v17.1
				h-11.008v-39.483h11.008v5.21c1.419-1.615,3.192-2.984,5.321-4.11c2.129-1.124,4.293-1.712,6.494-1.761l0.073,10.348H481.452z"/>
			<path style="fill:#6C6D6D;" d="M522.402,259.777c-4.453,4.209-9.677,6.312-15.668,6.312c-5.993,0-10.948-1.846-14.861-5.541
				c-3.916-3.694-5.871-8.647-5.871-14.861c0-6.213,1.993-11.155,5.98-14.825c3.987-3.669,8.696-5.504,14.128-5.504
				c5.432,0,10.041,1.64,13.834,4.917c3.791,3.278,5.687,7.779,5.687,13.504v5.871h-28.768c0.341,2.153,1.468,3.914,3.376,5.284
				c1.908,1.37,4.06,2.055,6.458,2.055c3.864,0,7.045-1.296,9.54-3.89L522.402,259.777z M511.835,236.366
				c-1.519-1.272-3.365-1.908-5.541-1.908c-2.178,0-4.172,0.66-5.982,1.982c-1.81,1.321-2.861,3.108-3.154,5.357h17.32
				C514.231,239.448,513.35,237.639,511.835,236.366z"/>
			<path style="fill:#6C6D6D;" d="M565.114,259.777c-4.453,4.209-9.677,6.312-15.668,6.312c-5.993,0-10.949-1.846-14.861-5.541
				c-3.915-3.694-5.871-8.647-5.871-14.861c0-6.213,1.993-11.155,5.98-14.825c3.987-3.669,8.696-5.504,14.128-5.504
				c5.431,0,10.041,1.64,13.835,4.917c3.79,3.278,5.686,7.779,5.686,13.504v5.871h-28.768c0.342,2.153,1.469,3.914,3.375,5.284
				c1.909,1.37,4.061,2.055,6.459,2.055c3.864,0,7.045-1.296,9.541-3.89L565.114,259.777z M554.546,236.366
				c-1.518-1.272-3.364-1.908-5.541-1.908c-2.177,0-4.171,0.66-5.98,1.982c-1.812,1.321-2.862,3.108-3.155,5.357h17.319
				C556.942,239.448,556.063,237.639,554.546,236.366z"/>
			<path style="fill:#6C6D6D;" d="M584.635,243.484v22.017h-11.008v-39.483h11.008v4.403c3.328-3.376,7.069-5.064,11.229-5.064
				c4.157,0,7.645,1.467,10.457,4.403c2.813,2.935,4.221,6.85,4.221,11.742v23.998h-11.008v-22.311c0-6.066-2.229-9.1-6.679-9.1
				c-2.202,0-4.122,0.796-5.761,2.385C585.454,238.066,584.635,240.402,584.635,243.484z"/>
			<path style="fill:#6C6D6D;" d="M446.371,278.433v10.201h-25.539v10.569h22.971v9.76h-22.971v10.642h26.347v10.128h-37.795
				v-51.299H446.371z"/>
			<path style="fill:#6C6D6D;" d="M464.277,307.715v22.018H453.27v-39.483h11.008v4.404c3.328-3.378,7.069-5.066,11.229-5.066
				c4.157,0,7.645,1.469,10.457,4.403c2.813,2.935,4.221,6.85,4.221,11.742v23.999h-11.008v-22.311c0-6.066-2.229-9.101-6.679-9.101
				c-2.202,0-4.122,0.797-5.761,2.387C465.097,302.298,464.277,304.633,464.277,307.715z"/>
			<path style="fill:#6C6D6D;" d="M531.723,324.008c-4.453,4.209-9.676,6.31-15.667,6.31c-5.995,0-10.949-1.846-14.862-5.54
				c-3.915-3.693-5.872-8.648-5.872-14.861c0-6.213,1.994-11.156,5.981-14.824c3.987-3.67,8.697-5.505,14.128-5.505
				c5.431,0,10.041,1.642,13.834,4.917c3.791,3.279,5.687,7.779,5.687,13.505v5.871h-28.768c0.342,2.153,1.468,3.915,3.375,5.283
				c1.909,1.371,4.062,2.056,6.459,2.056c3.864,0,7.045-1.297,9.54-3.89L531.723,324.008z M521.154,300.597
				c-1.518-1.272-3.364-1.907-5.541-1.907c-2.177,0-4.171,0.66-5.98,1.98c-1.811,1.321-2.862,3.107-3.155,5.358h17.319
				C523.551,303.68,522.671,301.869,521.154,300.597z"/>
			<path style="fill:#6C6D6D;" d="M561.005,299.938c-3.279,0-5.725,1.161-7.339,3.484c-1.614,2.325-2.423,5.395-2.423,9.211v17.1
				h-11.008v-39.483h11.008v5.211c1.42-1.614,3.193-2.983,5.322-4.11c2.128-1.124,4.293-1.712,6.493-1.762l0.074,10.35H561.005z"/>
			<path style="fill:#6C6D6D;" d="M596.964,323.054c-3.474,3.865-7.792,5.799-12.952,5.799c-5.164,0-9.518-1.749-13.064-5.248
				c-3.547-3.498-5.321-8.17-5.321-14.017c0-5.847,1.823-10.641,5.469-14.385c3.644-3.743,7.815-5.614,12.513-5.614
				c4.697,0,8.587,1.935,11.669,5.798v-5.21h11.008v34.419c0,3.523-0.612,6.653-1.834,9.395c-1.223,2.739-2.862,4.891-4.917,6.458
				c-4.063,3.229-8.856,4.844-14.385,4.844c-2.935,0-5.933-0.478-8.99-1.432c-3.059-0.954-5.736-2.311-8.036-4.073l4.257-8.292
				c3.62,2.739,7.449,4.108,11.485,4.108c4.037,0,7.23-1.003,9.578-3.008C595.79,330.588,596.964,327.409,596.964,323.054z
				 M595.423,309.147c0-3.154-0.881-5.639-2.643-7.45c-1.76-1.808-3.938-2.714-6.531-2.714c-2.594,0-4.832,0.906-6.715,2.714
				c-1.883,1.812-2.825,4.284-2.825,7.414c0,3.131,0.917,5.663,2.752,7.596c1.835,1.933,4.073,2.898,6.715,2.898
				s4.845-0.954,6.604-2.862C594.542,314.834,595.423,312.302,595.423,309.147z"/>
			<path style="fill:#6C6D6D;" d="M620.889,345.291c-3.865,0-7.511-1.566-10.935-4.697l4.99-8.147
				c1.859,1.811,3.767,2.716,5.725,2.716c1.027,0,1.907-0.503,2.642-1.504c0.735-1.003,1.101-2.067,1.101-3.193
				c0-1.125-5.089-14.53-15.265-40.217h11.742l9.613,24.585l9.615-24.585h11.742l-18.347,46.529
				c-1.077,2.69-2.753,4.781-5.028,6.273C626.209,344.544,623.677,345.291,620.889,345.291z"/>
		</g>
	</g>
	<g>
		<g>
			<path style="fill:#6C6D6D;" d="M424.944,364.303v9.215h-1.217v-8.982c0-3.101-1.825-4.926-4.926-4.926
				c-3.478,0.086-5.621,2.259-5.882,5.736v8.172h-1.218v-15.097h1.218v3.854c1.014-2.493,3.158-3.825,6.171-3.884
				C422.771,358.392,424.944,360.623,424.944,364.303z"/>
			<path style="fill:#6C6D6D;" d="M440.153,370.533c-1.274,2.087-3.419,3.013-6.026,3.013c-2.985,0-4.985-1.884-4.985-4.432
				c0-2.522,2.145-4.058,5.622-4.058h5.361v-1.479c-0.029-2.55-1.507-4.085-4.521-4.085c-1.884,0-3.477,0.753-5.071,1.97
				l-0.579-0.928c1.796-1.303,3.534-2.144,5.824-2.144c3.565,0,5.505,1.97,5.534,5.101l0.058,10.025h-1.186L440.153,370.533z
				 M440.153,368.592v-2.464h-5.273c-2.956,0-4.578,1.015-4.578,2.956c0,2,1.536,3.361,3.999,3.361
				C437.11,372.445,439.226,371.229,440.153,368.592z"/>
			<path style="fill:#6C6D6D;" d="M454.001,372.474c-0.957,0.668-2.028,1.072-3.158,1.072c-2.145,0.03-3.42-1.361-3.42-4.2v-9.505
				h-2.202v-1.044h2.202v-3.737h1.159v3.737h5.129v1.044h-5.129v9.358c0,2.145,0.841,3.188,2.405,3.159
				c0.869,0,1.768-0.319,2.55-0.87L454.001,372.474z"/>
			<path style="fill:#6C6D6D;" d="M470.195,373.518h-1.188v-4.028c-0.956,2.608-3.072,4.028-6.056,4.057
				c-3.651,0-5.767-2.201-5.767-5.911v-9.214h1.188v8.983c0,3.1,1.797,4.926,4.839,4.926c3.651-0.087,5.796-2.579,5.796-6.52v-7.389
				h1.188V373.518z"/>
			<path style="fill:#6C6D6D;" d="M477.465,362.217c0.957-2.435,2.928-3.767,5.621-3.825v1.246c-3.332,0-5.36,2.202-5.621,5.708
				v8.172h-1.217v-15.097h1.217V362.217z"/>
			<path style="fill:#6C6D6D;" d="M495.255,370.533c-1.275,2.087-3.419,3.013-6.027,3.013c-2.984,0-4.984-1.884-4.984-4.432
				c0-2.522,2.145-4.058,5.622-4.058h5.36v-1.479c-0.028-2.55-1.507-4.085-4.521-4.085c-1.884,0-3.477,0.753-5.071,1.97
				l-0.578-0.928c1.796-1.303,3.534-2.144,5.823-2.144c3.565,0,5.506,1.97,5.535,5.101l0.059,10.025h-1.189L495.255,370.533z
				 M495.255,368.592v-2.464h-5.274c-2.955,0-4.578,1.015-4.578,2.956c0,2,1.536,3.361,4,3.361
				C492.212,372.445,494.327,371.229,495.255,368.592z"/>
			<path style="fill:#6C6D6D;" d="M502.146,373.518v-21.501h1.217v21.501H502.146z"/>
			<path style="fill:#6C6D6D;" d="M533.003,365.983c0,4.405-3.013,7.563-7.271,7.563c-2.956,0-5.275-1.535-6.404-3.969v9.563h-1.217
				v-20.719h1.217v3.97c1.129-2.463,3.448-3.999,6.404-3.999C529.962,358.392,533.003,361.55,533.003,365.983z M531.816,365.983
				c0-3.737-2.608-6.462-6.26-6.462c-3.622,0-6.229,2.725-6.229,6.462c0,3.738,2.607,6.433,6.229,6.433
				C529.208,372.416,531.816,369.722,531.816,365.983z"/>
			<path style="fill:#6C6D6D;" d="M550.675,365.955c0,4.462-3.13,7.591-7.447,7.591c-4.288,0-7.446-3.129-7.446-7.591
				c0-4.405,3.158-7.564,7.446-7.564C547.545,358.392,550.675,361.55,550.675,365.955z M536.969,365.983
				c0,3.797,2.638,6.433,6.259,6.433c3.65,0,6.259-2.636,6.259-6.433c0-3.796-2.608-6.433-6.259-6.433
				C539.606,359.551,536.969,362.188,536.969,365.983z"/>
			<path style="fill:#6C6D6D;" d="M568.927,373.518l-5.014-13.503l-5.07,13.503h-1.246l-5.708-15.097h1.304l5.042,13.792
				l5.013-13.792h1.305l5.041,13.792l5.013-13.792h1.275l-5.708,15.097H568.927z"/>
			<path style="fill:#6C6D6D;" d="M591.204,366.303h-13.184c0.173,3.68,2.724,6.143,6.229,6.143c2.058,0,3.883-0.754,5.101-2.086
				l0.694,0.782c-1.391,1.507-3.448,2.404-5.853,2.404c-4.259,0-7.359-3.129-7.359-7.563s3.101-7.592,7.359-7.592
				C588.626,358.392,591.291,361.637,591.204,366.303z M590.102,365.23c-0.231-3.42-2.462-5.737-5.911-5.737
				c-3.39,0-5.853,2.317-6.143,5.737H590.102z"/>
			<path style="fill:#6C6D6D;" d="M596.735,362.217c0.956-2.435,2.928-3.767,5.621-3.825v1.246c-3.332,0-5.36,2.202-5.621,5.708
				v8.172h-1.217v-15.097h1.217V362.217z"/>
			<path style="fill:#6C6D6D;" d="M418.802,407.238c-0.956,0.668-2.029,1.072-3.158,1.072c-2.145,0.03-3.42-1.36-3.42-4.2v-9.505
				h-2.202v-1.044h2.202v-3.737h1.159v3.737h5.129v1.044h-5.129v9.358c0,2.146,0.841,3.189,2.405,3.159
				c0.869,0,1.768-0.319,2.55-0.87L418.802,407.238z"/>
			<path style="fill:#6C6D6D;" d="M434.97,401.067h-13.185c0.173,3.68,2.724,6.143,6.229,6.143c2.058,0,3.883-0.753,5.099-2.086
				l0.696,0.782c-1.391,1.507-3.448,2.404-5.853,2.404c-4.261,0-7.36-3.129-7.36-7.563s3.1-7.592,7.36-7.592
				C432.39,393.156,435.056,396.401,434.97,401.067z M433.867,399.995c-0.232-3.42-2.462-5.738-5.91-5.738
				c-3.391,0-5.854,2.318-6.144,5.738H433.867z"/>
			<path style="fill:#6C6D6D;" d="M450.438,395.272l-0.695,0.868c-1.218-1.13-2.782-1.825-4.665-1.825
				c-3.622,0-6.23,2.637-6.23,6.404c0,3.824,2.608,6.462,6.23,6.462c2.027,0,3.767-0.754,4.925-2.115l0.725,0.782
				c-1.332,1.564-3.331,2.462-5.68,2.462c-4.259,0-7.389-3.129-7.389-7.563s3.13-7.592,7.389-7.592
				C447.221,393.156,449.105,393.94,450.438,395.272z"/>
			<path style="fill:#6C6D6D;" d="M468.893,399.068v9.214h-1.217V399.3c0-3.102-1.825-4.927-4.926-4.927
				c-3.738,0.087-5.911,2.579-5.911,6.52v7.39h-1.217v-21.501h1.217v10.345c1.014-2.551,3.158-3.911,6.2-3.97
				C466.72,393.156,468.893,395.388,468.893,399.068z"/>
			<path style="fill:#6C6D6D;" d="M487.665,399.068v9.214h-1.217V399.3c0-3.102-1.825-4.927-4.926-4.927
				c-3.478,0.087-5.622,2.26-5.883,5.738v8.171h-1.217v-15.097h1.217v3.853c1.014-2.491,3.159-3.824,6.172-3.883
				C485.492,393.156,487.665,395.388,487.665,399.068z"/>
			<path style="fill:#6C6D6D;" d="M506.468,400.72c0,4.462-3.13,7.591-7.447,7.591c-4.288,0-7.447-3.129-7.447-7.591
				c0-4.405,3.159-7.563,7.447-7.563C503.338,393.156,506.468,396.315,506.468,400.72z M492.761,400.748
				c0,3.796,2.638,6.434,6.26,6.434c3.65,0,6.258-2.638,6.258-6.434s-2.607-6.433-6.258-6.433
				C495.398,394.315,492.761,396.952,492.761,400.748z"/>
			<path style="fill:#6C6D6D;" d="M511.013,408.282v-21.501h1.217v21.501H511.013z"/>
			<path style="fill:#6C6D6D;" d="M531.671,400.72c0,4.462-3.129,7.591-7.446,7.591c-4.288,0-7.446-3.129-7.446-7.591
				c0-4.405,3.158-7.563,7.446-7.563C528.542,393.156,531.671,396.315,531.671,400.72z M517.966,400.748
				c0,3.796,2.637,6.434,6.259,6.434c3.65,0,6.259-2.638,6.259-6.434s-2.608-6.433-6.259-6.433
				C520.602,394.315,517.966,396.952,517.966,400.748z"/>
			<path style="fill:#6C6D6D;" d="M548.763,406.631c0,4.462-2.867,7.302-7.302,7.273c-2.404-0.059-4.347-0.87-6.114-2.464
				l0.638-0.898c1.565,1.479,3.274,2.174,5.447,2.232c3.738,0.028,6.172-2.376,6.172-6.143v-2.84
				c-1.042,2.404-3.303,3.883-6.172,3.883c-4.056,0-6.982-3.042-6.982-7.245c0-4.23,2.927-7.272,6.954-7.272
				c2.898,0,5.129,1.507,6.2,3.912v-3.883h1.159V406.631z M547.604,400.458c0-3.594-2.55-6.201-6.026-6.201
				c-3.477,0-5.999,2.607-5.999,6.201c0,3.564,2.493,6.173,5.999,6.173C545.054,406.631,547.604,404.022,547.604,400.458z"/>
			<path style="fill:#6C6D6D;" d="M556.003,388.839c0,0.608-0.463,1.072-1.014,1.072c-0.55,0-1.015-0.464-1.015-1.072
				c0-0.58,0.465-1.044,1.015-1.044C555.54,387.795,556.003,388.259,556.003,388.839z M554.382,408.282v-15.097h1.188v15.097
				H554.382z"/>
			<path style="fill:#6C6D6D;" d="M574.372,401.067h-13.184c0.174,3.68,2.724,6.143,6.23,6.143c2.058,0,3.882-0.753,5.101-2.086
				l0.694,0.782c-1.392,1.507-3.449,2.404-5.853,2.404c-4.259,0-7.359-3.129-7.359-7.563s3.101-7.592,7.359-7.592
				C571.794,393.156,574.46,396.401,574.372,401.067z M573.271,399.995c-0.232-3.42-2.463-5.738-5.911-5.738
				c-3.391,0-5.853,2.318-6.143,5.738H573.271z"/>
			<path style="fill:#6C6D6D;" d="M586.569,394.344l-0.522,0.985c-1.042-0.666-2.376-1.072-3.824-1.072
				c-2.115,0-3.768,0.811-3.768,2.607c0,4.058,8.809,2.058,8.809,7.39c0,2.812-2.521,4.057-5.244,4.057
				c-2.115,0-4.143-0.753-5.534-2.086l0.549-0.927c1.305,1.217,3.131,1.912,5.043,1.912c2.115,0,3.941-0.841,4.027-2.753
				c0.117-4.26-8.809-2.317-8.809-7.505c0-2.637,2.289-3.796,4.955-3.796C583.932,393.156,585.38,393.62,586.569,394.344z"/>
		</g>
	</g>
	<linearGradient id="SVGID_1_" gradientUnits="userSpaceOnUse" x1="285.5184" y1="346.4927" x2="304.6479" y2="211.1149">
		<stop  offset="0" style="stop-color:#73BF1D"/>
		<stop  offset="1" style="stop-color:#428500"/>
	</linearGradient>
	<path style="fill:url(#SVGID_1_);" d="M344.465,205.166c-16.668-10.647-30.074-4.761-36.493,14.092l-13.311,43.103
		c-1.288,4.115,0.621,7.452,4.266,7.452h36.723c11.465,0,20.256,13.911,11.13,25.213l-60.941,72.986
		c-2.816,3.489-7.089,2.108-5.838-1.887l14.05-55.35c1.29-4.116-0.621-7.452-4.265-7.452h-25.502
		c-14.469,0-18.208-10.603-15.204-21.586l16.791-63.153c2.901-10.91-7.869-21.164-17.513-15.297
		c-25.885,15.746-43.173,44.22-43.173,76.733c0,68.173,55.912,80.924,45.122,142.721c48.065-19.617,134.384-72.586,134.384-142.721
		C384.689,248.76,368.974,220.822,344.465,205.166z"/>
</g>
</svg>
