<?xml version="1.0" encoding="iso-8859-1"?>
<!-- Uploaded to: SVG Repo, www.svgrepo.com, Generator: SVG Repo Mixer Tools -->
<!DOCTYPE svg PUBLIC "-//W3C//DTD SVG 1.1//EN" "http://www.w3.org/Graphics/SVG/1.1/DTD/svg11.dtd">
<svg height="800px" width="800px" version="1.1" id="Capa_1" xmlns="http://www.w3.org/2000/svg" xmlns:xlink="http://www.w3.org/1999/xlink" 
	 viewBox="0 0 52.286 52.286" xml:space="preserve">
<g>
	<path style="fill:#1D1D1B;" d="M51.734,49.338c-7.545-1.339-14.084-4.069-19.95-8.699c10.951-0.076,14.875-14.055,9.165-22.784
		C31.753,3.797,13.412,9.724,1.066,1.543C0.53,1.189-0.126,1.773,0.021,2.346c3.506,13.686,0.777,31.248,10.376,42.819
		c3.387,4.082,8.947,6.884,14.215,4.752c3.623-1.466,5.686-4.856,5.154-8.486c6.162,5.406,13.493,9.127,21.763,9.418
		C52.38,50.88,52.601,49.491,51.734,49.338z M20.713,48.734c-3.32-0.028-6.382-1.879-8.612-4.208
		c-3.766-3.933-5.633-9.666-6.702-14.874C3.637,21.075,3.682,12.263,1.803,3.71c7.956,4.715,17.619,3.523,26.187,6.669
		c6.07,2.229,11.725,6.474,13.507,12.984c2.167,7.92-3.205,16.571-11.996,15.343c-0.144-0.13-0.289-0.254-0.432-0.386
		c-6.413-5.937-10.756-13.464-15.427-20.744c-0.206-0.322-0.647-0.043-0.501,0.293c3.395,7.806,8.619,16.078,15.332,22.39
		C28.947,44.833,25.304,48.773,20.713,48.734z"/>
</g>
</svg>